<?xml version="1.0" encoding="utf-8"?>
<!-- Generator: Adobe Illustrator 24.0.1, SVG Export Plug-In . SVG Version: 6.00 Build 0)  -->
<svg version="1.1" id="Layer_1" xmlns="http://www.w3.org/2000/svg" xmlns:xlink="http://www.w3.org/1999/xlink" x="0px" y="0px"
	 viewBox="0 0 340.2 425.2" style="enable-background:new 0 0 340.2 425.2;" xml:space="preserve">
<style type="text/css">
	.st0{fill:#E6E6E6;}
	.st1{fill:#BEBEBE;}
</style>
<rect class="st0" width="340.2" height="425.2"/>
<path class="st1" d="M167.4,206c23.7,0,44.2-8.5,61-25.3c16.8-16.8,25.3-37.3,25.3-61c0-23.7-8.5-44.2-25.3-61
	c-16.8-16.8-37.3-25.3-61-25.3c-23.7,0-44.2,8.5-61,25.3s-25.3,37.3-25.3,61c0,23.7,8.5,44.2,25.3,61
	C123.2,197.5,143.7,206,167.4,206z"/>
<path class="st1" d="M318.4,308.9c-0.5-7-1.5-14.6-2.9-22.6c-1.5-8.1-3.3-15.8-5.6-22.8c-2.3-7.2-5.5-14.4-9.4-21.2
	c-4-7.1-8.8-13.3-14.1-18.4c-5.6-5.3-12.4-9.6-20.3-12.7c-7.9-3.1-16.6-4.7-25.9-4.7c-3.7,0-7.2,1.5-14,5.9
	c-4.2,2.7-9.1,5.9-14.6,9.4c-4.7,3-11,5.8-18.9,8.3c-7.7,2.5-15.4,3.7-23.1,3.7s-15.5-1.3-23.1-3.7c-7.8-2.5-14.2-5.3-18.9-8.3
	c-5.4-3.5-10.4-6.6-14.6-9.4c-6.8-4.4-10.4-5.9-14-5.9c-9.3,0-18,1.6-25.9,4.7c-7.9,3.1-14.7,7.4-20.3,12.7
	c-5.3,5.1-10.1,11.3-14.1,18.4c-3.9,6.8-7,14-9.4,21.2c-2.2,7-4.1,14.7-5.6,22.8c-1.4,8-2.4,15.6-2.9,22.6c-0.5,6.9-0.7,14-0.7,21.2
	c0,18.7,5.9,33.8,17.7,45c11.6,11,26.9,16.6,45.5,16.6h172.5c18.6,0,33.9-5.6,45.5-16.6c11.7-11.2,17.7-26.3,17.7-45
	C319.1,322.9,318.8,315.8,318.4,308.9z"/>
</svg>
